<svg width="41" height="40" viewBox="0 0 41 40" fill="none" xmlns="http://www.w3.org/2000/svg">
<path d="M27.1667 13.3333C29.8188 13.3333 32.3624 14.3869 34.2377 16.2622C36.1131 18.1376 37.1667 20.6811 37.1667 23.3333V35H30.5V23.3333C30.5 22.4493 30.1488 21.6014 29.5237 20.9763C28.8986 20.3512 28.0507 20 27.1667 20C26.2826 20 25.4348 20.3512 24.8097 20.9763C24.1845 21.6014 23.8333 22.4493 23.8333 23.3333V35H17.1667V23.3333C17.1667 20.6811 18.2202 18.1376 20.0956 16.2622C21.971 14.3869 24.5145 13.3333 27.1667 13.3333V13.3333Z" fill="#0052FF" stroke="#0052FF" stroke-width="2" stroke-linecap="round" stroke-linejoin="round"/>
<path d="M10.5 15H3.83333V35H10.5V15Z" fill="#0052FF" stroke="#0052FF" stroke-width="2" stroke-linecap="round" stroke-linejoin="round"/>
<path d="M7.16666 9.99998C9.00761 9.99998 10.5 8.5076 10.5 6.66665C10.5 4.8257 9.00761 3.33331 7.16666 3.33331C5.32571 3.33331 3.83333 4.8257 3.83333 6.66665C3.83333 8.5076 5.32571 9.99998 7.16666 9.99998Z" fill="#0052FF" stroke="#0052FF" stroke-width="2" stroke-linecap="round" stroke-linejoin="round"/>
</svg>
