<svg width="41" height="40" viewBox="0 0 41 40" fill="none" xmlns="http://www.w3.org/2000/svg">
<path d="M38.8333 4.99997C37.2373 6.12577 35.4702 6.98682 33.6 7.54998C32.5962 6.39583 31.2622 5.57779 29.7784 5.20652C28.2945 4.83524 26.7325 4.92863 25.3035 5.47406C23.8744 6.01949 22.6474 6.99064 21.7883 8.25617C20.9292 9.5217 20.4795 11.0205 20.5 12.55V14.2166C17.5711 14.2926 14.6688 13.643 12.0517 12.3257C9.43457 11.0084 7.18386 9.06437 5.5 6.66664C5.5 6.66664 -1.16667 21.6666 13.8333 28.3333C10.4009 30.6633 6.31192 31.8315 2.16666 31.6666C17.1667 40 35.5 31.6666 35.5 12.5C35.4985 12.0357 35.4538 11.5726 35.3667 11.1166C37.0677 9.43913 38.268 7.32116 38.8333 4.99997Z" fill="#0052FF" stroke="white" stroke-width="2" stroke-linecap="round" stroke-linejoin="round"/>
</svg>
